<mxfile host="app.diagrams.net" agent="Mozilla/5.0 (Windows NT 10.0; Win64; x64) AppleWebKit/537.36 (KHTML, like Gecko) Chrome/128.0.0.0 YaBrowser/24.10.0.0 Safari/537.36" version="24.8.4">
  <diagram name="Страница — 1" id="IqtMi52bCCeb-jUrSkYr">
    <mxGraphModel dx="1355" dy="659" grid="0" gridSize="10" guides="1" tooltips="1" connect="1" arrows="1" fold="1" page="1" pageScale="1" pageWidth="827" pageHeight="1169" math="0" shadow="0">
      <root>
        <mxCell id="0" />
        <mxCell id="1" parent="0" />
        <mxCell id="VjBMBiwkj6nF564_v9z5-1" value="Клиент" style="rounded=0;whiteSpace=wrap;html=1;" parent="1" vertex="1">
          <mxGeometry x="40" y="200" width="80" height="40" as="geometry" />
        </mxCell>
        <mxCell id="VjBMBiwkj6nF564_v9z5-2" value="Работник&lt;div&gt;редакции&lt;/div&gt;" style="rounded=0;whiteSpace=wrap;html=1;" parent="1" vertex="1">
          <mxGeometry x="180" y="200" width="80" height="40" as="geometry" />
        </mxCell>
        <mxCell id="VjBMBiwkj6nF564_v9z5-3" value="Склад" style="rounded=0;whiteSpace=wrap;html=1;" parent="1" vertex="1">
          <mxGeometry x="320" y="200" width="80" height="40" as="geometry" />
        </mxCell>
        <mxCell id="VjBMBiwkj6nF564_v9z5-4" value="Предлагаемая продукция" style="rounded=0;whiteSpace=wrap;html=1;" parent="1" vertex="1">
          <mxGeometry x="460" y="200" width="80" height="40" as="geometry" />
        </mxCell>
        <mxCell id="VjBMBiwkj6nF564_v9z5-5" value="Заявка" style="rounded=0;whiteSpace=wrap;html=1;" parent="1" vertex="1">
          <mxGeometry x="600" y="200" width="80" height="40" as="geometry" />
        </mxCell>
        <mxCell id="VjBMBiwkj6nF564_v9z5-6" value="Полученный&lt;div&gt;продукт&lt;/div&gt;" style="rounded=0;whiteSpace=wrap;html=1;" parent="1" vertex="1">
          <mxGeometry x="740" y="200" width="80" height="40" as="geometry" />
        </mxCell>
        <mxCell id="VjBMBiwkj6nF564_v9z5-7" value="" style="rounded=0;whiteSpace=wrap;html=1;" parent="1" vertex="1">
          <mxGeometry x="70" y="280" width="20" height="460" as="geometry" />
        </mxCell>
        <mxCell id="VjBMBiwkj6nF564_v9z5-8" value="" style="rounded=0;whiteSpace=wrap;html=1;" parent="1" vertex="1">
          <mxGeometry x="490" y="280" width="20" height="80" as="geometry" />
        </mxCell>
        <mxCell id="VjBMBiwkj6nF564_v9z5-9" value="" style="rounded=0;whiteSpace=wrap;html=1;" parent="1" vertex="1">
          <mxGeometry x="630" y="340" width="20" height="310" as="geometry" />
        </mxCell>
        <mxCell id="VjBMBiwkj6nF564_v9z5-10" value="" style="rounded=0;whiteSpace=wrap;html=1;" parent="1" vertex="1">
          <mxGeometry x="210" y="430" width="20" height="250" as="geometry" />
        </mxCell>
        <mxCell id="VjBMBiwkj6nF564_v9z5-11" value="" style="rounded=0;whiteSpace=wrap;html=1;" parent="1" vertex="1">
          <mxGeometry x="770" y="680" width="20" height="40" as="geometry" />
        </mxCell>
        <mxCell id="VjBMBiwkj6nF564_v9z5-12" value="" style="rounded=0;whiteSpace=wrap;html=1;" parent="1" vertex="1">
          <mxGeometry x="350" y="480" width="20" height="120" as="geometry" />
        </mxCell>
        <mxCell id="VjBMBiwkj6nF564_v9z5-13" value="" style="endArrow=classic;html=1;rounded=0;fontSize=12;startSize=8;endSize=8;curved=1;exitX=1;exitY=0;exitDx=0;exitDy=0;entryX=0;entryY=0;entryDx=0;entryDy=0;" parent="1" source="VjBMBiwkj6nF564_v9z5-7" target="VjBMBiwkj6nF564_v9z5-8" edge="1">
          <mxGeometry width="50" height="50" relative="1" as="geometry">
            <mxPoint x="420" y="400" as="sourcePoint" />
            <mxPoint x="470" y="350" as="targetPoint" />
          </mxGeometry>
        </mxCell>
        <mxCell id="VjBMBiwkj6nF564_v9z5-14" value="" style="endArrow=classic;html=1;rounded=0;fontSize=12;startSize=8;endSize=8;curved=1;" parent="1" edge="1">
          <mxGeometry width="50" height="50" relative="1" as="geometry">
            <mxPoint x="501" y="350" as="sourcePoint" />
            <mxPoint x="629" y="351" as="targetPoint" />
          </mxGeometry>
        </mxCell>
        <mxCell id="VjBMBiwkj6nF564_v9z5-15" value="" style="endArrow=classic;html=1;rounded=0;fontSize=12;startSize=8;endSize=8;curved=1;entryX=1;entryY=0;entryDx=0;entryDy=0;" parent="1" target="VjBMBiwkj6nF564_v9z5-10" edge="1">
          <mxGeometry width="50" height="50" relative="1" as="geometry">
            <mxPoint x="636" y="429" as="sourcePoint" />
            <mxPoint x="440" y="400" as="targetPoint" />
          </mxGeometry>
        </mxCell>
        <mxCell id="VjBMBiwkj6nF564_v9z5-16" value="" style="endArrow=classic;html=1;rounded=0;fontSize=12;startSize=8;endSize=8;curved=1;entryX=0;entryY=0;entryDx=0;entryDy=0;" parent="1" target="VjBMBiwkj6nF564_v9z5-12" edge="1">
          <mxGeometry width="50" height="50" relative="1" as="geometry">
            <mxPoint x="220" y="480" as="sourcePoint" />
            <mxPoint x="270" y="430" as="targetPoint" />
          </mxGeometry>
        </mxCell>
        <mxCell id="VjBMBiwkj6nF564_v9z5-17" value="" style="endArrow=classic;html=1;rounded=0;fontSize=12;startSize=8;endSize=8;curved=1;exitX=0;exitY=1;exitDx=0;exitDy=0;" parent="1" source="VjBMBiwkj6nF564_v9z5-12" edge="1">
          <mxGeometry width="50" height="50" relative="1" as="geometry">
            <mxPoint x="320" y="550" as="sourcePoint" />
            <mxPoint x="229" y="600" as="targetPoint" />
          </mxGeometry>
        </mxCell>
        <mxCell id="VjBMBiwkj6nF564_v9z5-18" value="" style="endArrow=classic;html=1;rounded=0;fontSize=12;startSize=8;endSize=8;curved=1;entryX=0;entryY=0;entryDx=0;entryDy=0;" parent="1" target="VjBMBiwkj6nF564_v9z5-11" edge="1">
          <mxGeometry width="50" height="50" relative="1" as="geometry">
            <mxPoint x="230" y="680" as="sourcePoint" />
            <mxPoint x="280" y="630" as="targetPoint" />
          </mxGeometry>
        </mxCell>
        <mxCell id="VjBMBiwkj6nF564_v9z5-19" value="" style="endArrow=classic;html=1;rounded=0;fontSize=12;startSize=8;endSize=8;curved=1;exitX=0;exitY=1;exitDx=0;exitDy=0;entryX=1.05;entryY=0.961;entryDx=0;entryDy=0;entryPerimeter=0;" parent="1" source="VjBMBiwkj6nF564_v9z5-11" target="VjBMBiwkj6nF564_v9z5-7" edge="1">
          <mxGeometry width="50" height="50" relative="1" as="geometry">
            <mxPoint x="450" y="660" as="sourcePoint" />
            <mxPoint x="170" y="720" as="targetPoint" />
          </mxGeometry>
        </mxCell>
        <mxCell id="VjBMBiwkj6nF564_v9z5-21" value="" style="endArrow=none;dashed=1;html=1;rounded=0;fontSize=12;startSize=8;endSize=8;curved=1;entryX=0.5;entryY=1.058;entryDx=0;entryDy=0;entryPerimeter=0;" parent="1" target="VjBMBiwkj6nF564_v9z5-1" edge="1">
          <mxGeometry width="50" height="50" relative="1" as="geometry">
            <mxPoint x="80" y="280" as="sourcePoint" />
            <mxPoint x="130" y="230" as="targetPoint" />
          </mxGeometry>
        </mxCell>
        <mxCell id="VjBMBiwkj6nF564_v9z5-23" value="" style="endArrow=none;dashed=1;html=1;rounded=0;fontSize=12;startSize=8;endSize=8;curved=1;entryX=0.5;entryY=1.058;entryDx=0;entryDy=0;entryPerimeter=0;exitX=0.5;exitY=0;exitDx=0;exitDy=0;" parent="1" source="VjBMBiwkj6nF564_v9z5-10" edge="1">
          <mxGeometry width="50" height="50" relative="1" as="geometry">
            <mxPoint x="219.76" y="280" as="sourcePoint" />
            <mxPoint x="219.76" y="242" as="targetPoint" />
          </mxGeometry>
        </mxCell>
        <mxCell id="VjBMBiwkj6nF564_v9z5-24" value="" style="endArrow=none;dashed=1;html=1;rounded=0;fontSize=12;startSize=8;endSize=8;curved=1;entryX=0.5;entryY=1.058;entryDx=0;entryDy=0;entryPerimeter=0;" parent="1" edge="1">
          <mxGeometry width="50" height="50" relative="1" as="geometry">
            <mxPoint x="220" y="780" as="sourcePoint" />
            <mxPoint x="219.57999999999998" y="680" as="targetPoint" />
          </mxGeometry>
        </mxCell>
        <mxCell id="VjBMBiwkj6nF564_v9z5-25" value="" style="endArrow=none;dashed=1;html=1;rounded=0;fontSize=12;startSize=8;endSize=8;curved=1;entryX=0.5;entryY=1.058;entryDx=0;entryDy=0;entryPerimeter=0;" parent="1" edge="1">
          <mxGeometry width="50" height="50" relative="1" as="geometry">
            <mxPoint x="80" y="780" as="sourcePoint" />
            <mxPoint x="79.66" y="740" as="targetPoint" />
          </mxGeometry>
        </mxCell>
        <mxCell id="VjBMBiwkj6nF564_v9z5-26" value="" style="endArrow=none;dashed=1;html=1;rounded=0;fontSize=12;startSize=8;endSize=8;curved=1;entryX=0.5;entryY=1.058;entryDx=0;entryDy=0;entryPerimeter=0;exitX=0.5;exitY=0;exitDx=0;exitDy=0;" parent="1" source="VjBMBiwkj6nF564_v9z5-12" edge="1">
          <mxGeometry width="50" height="50" relative="1" as="geometry">
            <mxPoint x="359.9" y="400" as="sourcePoint" />
            <mxPoint x="359.65999999999997" y="242" as="targetPoint" />
          </mxGeometry>
        </mxCell>
        <mxCell id="VjBMBiwkj6nF564_v9z5-27" value="" style="endArrow=none;dashed=1;html=1;rounded=0;fontSize=12;startSize=8;endSize=8;curved=1;entryX=0.5;entryY=1.058;entryDx=0;entryDy=0;entryPerimeter=0;" parent="1" edge="1">
          <mxGeometry width="50" height="50" relative="1" as="geometry">
            <mxPoint x="360" y="640" as="sourcePoint" />
            <mxPoint x="359.65999999999997" y="600" as="targetPoint" />
          </mxGeometry>
        </mxCell>
        <mxCell id="VjBMBiwkj6nF564_v9z5-28" value="" style="endArrow=none;dashed=1;html=1;rounded=0;fontSize=12;startSize=8;endSize=8;curved=1;entryX=0.5;entryY=1.058;entryDx=0;entryDy=0;entryPerimeter=0;" parent="1" edge="1">
          <mxGeometry width="50" height="50" relative="1" as="geometry">
            <mxPoint x="640" y="700" as="sourcePoint" />
            <mxPoint x="639.5799999999999" y="650" as="targetPoint" />
          </mxGeometry>
        </mxCell>
        <mxCell id="VjBMBiwkj6nF564_v9z5-29" value="" style="endArrow=none;dashed=1;html=1;rounded=0;fontSize=12;startSize=8;endSize=8;curved=1;entryX=0.5;entryY=1.058;entryDx=0;entryDy=0;entryPerimeter=0;exitX=0.5;exitY=0;exitDx=0;exitDy=0;" parent="1" source="VjBMBiwkj6nF564_v9z5-11" edge="1">
          <mxGeometry width="50" height="50" relative="1" as="geometry">
            <mxPoint x="779.65" y="400" as="sourcePoint" />
            <mxPoint x="779.41" y="242" as="targetPoint" />
          </mxGeometry>
        </mxCell>
        <mxCell id="VjBMBiwkj6nF564_v9z5-30" value="" style="endArrow=none;dashed=1;html=1;rounded=0;fontSize=12;startSize=8;endSize=8;curved=1;entryX=0.5;entryY=1.058;entryDx=0;entryDy=0;entryPerimeter=0;" parent="1" edge="1">
          <mxGeometry width="50" height="50" relative="1" as="geometry">
            <mxPoint x="780" y="780" as="sourcePoint" />
            <mxPoint x="779.66" y="720" as="targetPoint" />
          </mxGeometry>
        </mxCell>
        <mxCell id="VjBMBiwkj6nF564_v9z5-31" value="" style="endArrow=none;dashed=1;html=1;rounded=0;fontSize=12;startSize=8;endSize=8;curved=1;entryX=0.5;entryY=1.058;entryDx=0;entryDy=0;entryPerimeter=0;" parent="1" edge="1">
          <mxGeometry width="50" height="50" relative="1" as="geometry">
            <mxPoint x="640" y="340" as="sourcePoint" />
            <mxPoint x="639.5" y="241" as="targetPoint" />
          </mxGeometry>
        </mxCell>
        <mxCell id="VjBMBiwkj6nF564_v9z5-32" value="" style="endArrow=none;dashed=1;html=1;rounded=0;fontSize=12;startSize=8;endSize=8;curved=1;entryX=0.5;entryY=1.058;entryDx=0;entryDy=0;entryPerimeter=0;" parent="1" edge="1">
          <mxGeometry width="50" height="50" relative="1" as="geometry">
            <mxPoint x="500" y="280" as="sourcePoint" />
            <mxPoint x="499.71" y="240" as="targetPoint" />
          </mxGeometry>
        </mxCell>
        <mxCell id="VjBMBiwkj6nF564_v9z5-33" value="&lt;font style=&quot;font-size: 12px;&quot;&gt;1.Выбор продукта&lt;/font&gt;" style="text;html=1;align=center;verticalAlign=middle;whiteSpace=wrap;rounded=0;fontSize=16;" parent="1" vertex="1">
          <mxGeometry x="219" y="254" width="140" height="30" as="geometry" />
        </mxCell>
        <mxCell id="VjBMBiwkj6nF564_v9z5-34" value="&lt;font style=&quot;font-size: 12px;&quot;&gt;2.Создание заявки&lt;/font&gt;" style="text;html=1;align=center;verticalAlign=middle;resizable=0;points=[];autosize=1;strokeColor=none;fillColor=none;fontSize=16;" parent="1" vertex="1">
          <mxGeometry x="502" y="322" width="130" height="30" as="geometry" />
        </mxCell>
        <mxCell id="VjBMBiwkj6nF564_v9z5-35" value="&lt;font style=&quot;font-size: 12px;&quot;&gt;3.Получение информации о заявке&lt;/font&gt;" style="text;html=1;align=center;verticalAlign=middle;resizable=0;points=[];autosize=1;strokeColor=none;fillColor=none;fontSize=16;" parent="1" vertex="1">
          <mxGeometry x="364" y="403" width="220" height="30" as="geometry" />
        </mxCell>
        <mxCell id="VjBMBiwkj6nF564_v9z5-36" value="&lt;font style=&quot;font-size: 12px;&quot;&gt;4.Подготовка&amp;nbsp;&lt;/font&gt;&lt;div style=&quot;font-size: 12px;&quot;&gt;&lt;font style=&quot;font-size: 12px;&quot;&gt;материалов&lt;/font&gt;&lt;/div&gt;" style="text;html=1;align=center;verticalAlign=middle;resizable=0;points=[];autosize=1;strokeColor=none;fillColor=none;fontSize=16;" parent="1" vertex="1">
          <mxGeometry x="240" y="435" width="100" height="50" as="geometry" />
        </mxCell>
        <mxCell id="VjBMBiwkj6nF564_v9z5-37" value="&lt;font style=&quot;font-size: 12px;&quot;&gt;5.Производство&lt;/font&gt;&lt;div style=&quot;font-size: 12px;&quot;&gt;&lt;font style=&quot;font-size: 12px;&quot;&gt;продукта&lt;/font&gt;&lt;/div&gt;" style="text;html=1;align=center;verticalAlign=middle;resizable=0;points=[];autosize=1;strokeColor=none;fillColor=none;fontSize=16;" parent="1" vertex="1">
          <mxGeometry x="234" y="555" width="110" height="50" as="geometry" />
        </mxCell>
        <mxCell id="VjBMBiwkj6nF564_v9z5-38" value="&lt;font style=&quot;font-size: 12px;&quot;&gt;6.Выдача готового продукта&lt;/font&gt;" style="text;html=1;align=center;verticalAlign=middle;resizable=0;points=[];autosize=1;strokeColor=none;fillColor=none;fontSize=16;" parent="1" vertex="1">
          <mxGeometry x="403" y="652" width="180" height="30" as="geometry" />
        </mxCell>
        <mxCell id="VjBMBiwkj6nF564_v9z5-39" value="&lt;font style=&quot;font-size: 12px;&quot;&gt;7.Получение готового продукта&lt;/font&gt;" style="text;html=1;align=center;verticalAlign=middle;resizable=0;points=[];autosize=1;strokeColor=none;fillColor=none;fontSize=16;" parent="1" vertex="1">
          <mxGeometry x="393" y="690" width="200" height="30" as="geometry" />
        </mxCell>
        <mxCell id="VjBMBiwkj6nF564_v9z5-47" value="" style="shape=umlDestroy;whiteSpace=wrap;html=1;strokeWidth=3;targetShapes=umlLifeline;" parent="1" vertex="1">
          <mxGeometry x="625" y="685" width="30" height="30" as="geometry" />
        </mxCell>
        <mxCell id="VjBMBiwkj6nF564_v9z5-48" value="" style="shape=umlDestroy;whiteSpace=wrap;html=1;strokeWidth=3;targetShapes=umlLifeline;" parent="1" vertex="1">
          <mxGeometry x="345" y="622" width="30" height="30" as="geometry" />
        </mxCell>
        <mxCell id="VjBMBiwkj6nF564_v9z5-51" value="" style="endArrow=none;dashed=1;html=1;rounded=0;fontSize=12;startSize=8;endSize=8;curved=1;entryX=0.5;entryY=1.058;entryDx=0;entryDy=0;entryPerimeter=0;" parent="1" edge="1">
          <mxGeometry width="50" height="50" relative="1" as="geometry">
            <mxPoint x="500" y="390" as="sourcePoint" />
            <mxPoint x="499.65999999999997" y="360" as="targetPoint" />
          </mxGeometry>
        </mxCell>
        <mxCell id="VjBMBiwkj6nF564_v9z5-52" value="" style="shape=umlDestroy;whiteSpace=wrap;html=1;strokeWidth=3;targetShapes=umlLifeline;" parent="1" vertex="1">
          <mxGeometry x="485" y="373" width="30" height="30" as="geometry" />
        </mxCell>
      </root>
    </mxGraphModel>
  </diagram>
</mxfile>
